# xmcd
# 
# Track frame offsets:
#     150
#     14656
#     37079
#     51535
#     70009
#     99382
#     112638
#     127581
#     149072
#     163103
#     177366
# 
# Disc length: 2704
# 
# Revision: 0
# Processed by: cddbd v1.5.2PL0 Copyright (c) Steve Scherf et al.
# Submitted via: fre:ac v1.0.17
# 
DISCID=970a8e0b
DTITLE=SKY DOG BLUES BAND - 北27西4 札幌へ来てから
DYEAR=1978
DGENRE=Blues
TTITLE0=旅から帰った夜
TTITLE1=ふるさと
TTITLE2=夜汽車
TTITLE3=四月の風
TTITLE4=いっぱいのみ屋の唄
TTITLE5=札幌へ来てから
TTITLE6=高円寺で雨やどり
TTITLE7=だけどそんな時は
TTITLE8=春嵐
TTITLE9=国道８号線
TTITLE10=悪酔い
EXTD=
EXTT0=
EXTT1=
EXTT2=
EXTT3=
EXTT4=
EXTT5=
EXTT6=
EXTT7=
EXTT8=
EXTT9=
EXTT10=
PLAYORDER=
